<svg width="323" height="73" viewBox="0 0 323 73" fill="none" xmlns="http://www.w3.org/2000/svg">
<path d="M17.896 44.1064C15.256 38.8024 11.872 31.9144 9.688 27.6424C9.664 27.5704 9.544 27.5944 9.4 27.5944C9.256 27.5944 9.136 27.5944 9.112 27.6424C7.24 31.1464 3.448 38.8024 0.952 44.1064C0.856 44.3464 0.88 44.4424 1.072 44.4424C2.656 44.4424 3.472 44.4424 5.056 44.4424C5.368 44.4424 5.416 44.3704 5.488 44.1784C5.728 43.6024 6.04 42.7864 6.328 42.1144H12.136C12.376 42.7144 12.736 43.6024 13.024 44.2504C13.096 44.4184 13.192 44.4424 13.312 44.4424C15.16 44.4424 16.648 44.4424 17.8 44.4424C18.016 44.4424 18.04 44.4184 17.896 44.1064ZM10.864 38.9944H7.528L9.16 35.3464L10.864 38.9944ZM32.2216 38.5384V28.3384C32.2216 28.1704 32.2216 28.1704 32.1016 28.1704C30.8056 28.1704 29.3176 28.1704 28.1656 28.1704C28.0216 28.1704 28.0216 28.1944 28.0216 28.3384V39.0424C28.0216 40.6744 26.6536 41.3224 25.5016 41.3224C24.3256 41.3224 22.9816 40.6504 22.9816 39.0424V28.3624C22.9816 28.1704 22.9816 28.1704 22.8136 28.1704C21.6616 28.1704 20.1016 28.1704 18.7816 28.1704C18.6616 28.1704 18.6616 28.1704 18.6616 28.3144V38.2984C18.6616 42.2584 20.8696 44.8504 25.4536 44.8504C30.2296 44.8504 32.2216 42.4024 32.2216 38.5384ZM49.4611 40.0264C49.4611 38.1304 48.1891 36.2584 46.1251 36.0424C47.9971 35.5144 49.0051 34.1944 49.0051 32.4424C49.0051 29.7544 47.2291 28.1704 44.2771 28.1704C41.1331 28.1704 38.5171 28.1704 35.8771 28.1704C35.6611 28.1704 35.5891 28.2184 35.5891 28.4104C35.5891 34.4824 35.5891 38.0344 35.5891 44.1064C35.5891 44.4184 35.6131 44.4424 35.8051 44.4424C39.2851 44.4424 41.4691 44.4424 44.8771 44.4424C47.7331 44.4424 49.4611 42.6664 49.4611 40.0264ZM44.6371 33.0664C44.6371 34.0264 44.0851 34.6024 43.1011 34.6024H39.8851V31.5304H43.1011C44.0851 31.5304 44.6371 32.0584 44.6371 33.0664ZM44.9971 39.3304C44.9971 40.4584 44.3491 41.0824 43.3411 41.0824H39.8851V37.5544H43.3411C44.3011 37.5544 44.9971 38.2984 44.9971 39.3304ZM66.4902 43.7944C65.0982 41.5384 63.7302 39.1144 63.1062 38.1304C64.5702 37.4344 65.3382 35.8744 65.3382 33.6664C65.3382 30.7144 63.3702 28.1704 59.6742 28.1704H52.2342C52.1622 28.1704 52.0422 28.1464 52.0422 28.3864C52.0422 34.1224 52.0422 38.0344 52.0422 44.2264C52.0422 44.4664 52.0422 44.4424 52.2342 44.4424C53.6742 44.4424 54.6342 44.4424 56.1702 44.4424C56.3382 44.4424 56.3622 44.4184 56.3622 44.2264C56.3622 42.3544 56.3622 39.6904 56.3622 39.6904L59.1222 39.6424C59.1222 39.6424 60.8742 42.4024 61.6902 43.9624C61.9062 44.3944 62.0022 44.4424 62.1942 44.4424H66.4422C66.7062 44.4424 66.7782 44.2744 66.4902 43.7944ZM60.7782 33.9784C60.7782 35.3704 60.0582 36.3304 58.7622 36.3784L56.3622 36.4504V31.7464H58.7382C60.1302 31.7464 60.7782 32.7064 60.7782 33.9784ZM84.1304 44.1064C81.4904 38.8024 78.1064 31.9144 75.9224 27.6424C75.8984 27.5704 75.7784 27.5944 75.6344 27.5944C75.4904 27.5944 75.3704 27.5944 75.3464 27.6424C73.4744 31.1464 69.6824 38.8024 67.1864 44.1064C67.0904 44.3464 67.1144 44.4424 67.3064 44.4424C68.8904 44.4424 69.7064 44.4424 71.2904 44.4424C71.6024 44.4424 71.6504 44.3704 71.7224 44.1784C71.9624 43.6024 72.2744 42.7864 72.5624 42.1144H78.3704C78.6104 42.7144 78.9704 43.6024 79.2584 44.2504C79.3304 44.4184 79.4264 44.4424 79.5464 44.4424C81.3944 44.4424 82.8824 44.4424 84.0344 44.4424C84.2504 44.4424 84.2744 44.4184 84.1304 44.1064ZM77.0984 38.9944H73.7624L75.3944 35.3464L77.0984 38.9944ZM100.258 39.8824C100.306 39.7384 100.282 39.6184 100.042 39.5704L96.4416 38.5864C96.2496 38.5384 96.2256 38.6344 96.1536 38.7544C95.5776 39.9784 94.4256 40.7704 92.7936 40.7704C90.7776 40.7704 88.7856 39.4024 88.7856 36.4024C88.7856 33.8344 90.3216 31.9384 92.7216 31.9384C94.3776 31.9384 95.5296 32.6824 96.2256 34.1224C96.2736 34.2424 96.2976 34.2904 96.4416 34.2424L100.018 32.8504C100.114 32.8024 100.21 32.7064 100.09 32.4184C99.0096 29.9704 96.5856 27.8344 92.6256 27.8344C87.9216 27.8344 84.2256 31.4584 84.2256 36.3784C84.2256 40.9864 87.6336 44.8504 92.7456 44.8504C96.4896 44.8504 99.1776 42.4984 100.258 39.8824Z" fill="black"/>
<path d="M227.992 39.8824C228.04 39.7384 228.016 39.6184 227.776 39.5704L224.176 38.5864C223.984 38.5384 223.96 38.6344 223.888 38.7544C223.312 39.9784 222.16 40.7704 220.528 40.7704C218.512 40.7704 216.52 39.4024 216.52 36.4024C216.52 33.8344 218.056 31.9384 220.456 31.9384C222.112 31.9384 223.264 32.6824 223.96 34.1224C224.008 34.2424 224.032 34.2904 224.176 34.2424L227.752 32.8504C227.848 32.8024 227.944 32.7064 227.824 32.4184C226.744 29.9704 224.32 27.8344 220.36 27.8344C215.656 27.8344 211.96 31.4584 211.96 36.3784C211.96 40.9864 215.368 44.8504 220.48 44.8504C224.224 44.8504 226.912 42.4984 227.992 39.8824ZM246.273 36.3544C246.273 31.6504 242.601 27.8344 237.753 27.8344C232.905 27.8344 229.233 31.6504 229.233 36.3544C229.233 41.0584 232.905 44.8504 237.753 44.8504C242.601 44.8504 246.273 41.0584 246.273 36.3544ZM241.785 36.3544C241.785 38.8264 240.297 40.7464 237.753 40.7464C235.161 40.7464 233.721 38.8264 233.721 36.3544C233.721 33.8824 235.161 31.9384 237.753 31.9384C240.297 31.9384 241.785 33.8824 241.785 36.3544ZM263.482 43.7944C262.09 41.5384 260.722 39.1144 260.098 38.1304C261.562 37.4344 262.33 35.8744 262.33 33.6664C262.33 30.7144 260.362 28.1704 256.666 28.1704H249.226C249.154 28.1704 249.034 28.1464 249.034 28.3864C249.034 34.1224 249.034 38.0344 249.034 44.2264C249.034 44.4664 249.034 44.4424 249.226 44.4424C250.666 44.4424 251.626 44.4424 253.162 44.4424C253.33 44.4424 253.354 44.4184 253.354 44.2264C253.354 42.3544 253.354 39.6904 253.354 39.6904L256.114 39.6424C256.114 39.6424 257.866 42.4024 258.682 43.9624C258.898 44.3944 258.994 44.4424 259.186 44.4424H263.434C263.698 44.4424 263.77 44.2744 263.482 43.7944ZM257.77 33.9784C257.77 35.3704 257.05 36.3304 255.754 36.3784L253.354 36.4504V31.7464H255.73C257.122 31.7464 257.77 32.7064 257.77 33.9784ZM279.355 44.5624C279.427 39.5704 279.451 33.1384 279.355 28.4584C279.355 28.2184 279.355 28.1704 279.115 28.1704C277.603 28.1704 276.907 28.1704 275.467 28.1704C275.275 28.1704 275.275 28.1944 275.275 28.4584V35.6584C275.275 35.6584 269.395 30.2104 265.963 27.7624C265.891 27.7144 265.819 27.6904 265.771 27.7384C265.723 27.7624 265.699 27.8104 265.699 27.9304C265.603 34.2664 265.579 38.0824 265.699 44.2024C265.699 44.2984 265.771 44.4424 265.939 44.4424C267.379 44.4424 268.051 44.4424 269.563 44.4424C269.779 44.4424 269.779 44.4424 269.779 44.2264V36.8824C269.779 36.8824 275.443 42.0904 279.067 44.8024C279.163 44.8744 279.235 44.8984 279.283 44.8744C279.355 44.8504 279.355 44.7304 279.355 44.5624ZM294.444 44.1064C294.444 43.1224 294.444 42.2104 294.444 41.0104C294.444 40.6984 294.444 40.6984 294.18 40.6984L287.148 40.7704V37.9864H293.868C294.084 37.9864 294.108 37.9384 294.108 37.6504C294.108 36.6904 294.108 35.8984 294.108 34.7224C294.108 34.4344 294.084 34.3864 293.868 34.3864H287.148V31.6744L294.012 31.7464C294.204 31.7464 294.276 31.6264 294.276 31.4104C294.276 30.3784 294.276 29.6824 294.276 28.4824C294.276 28.1944 294.252 28.1704 294.012 28.1704H283.164C282.924 28.1704 282.948 28.1944 282.948 28.4104C282.948 33.0184 282.948 39.9064 282.948 44.1064C282.948 44.3944 282.972 44.4424 283.212 44.4424H294.18C294.42 44.4424 294.444 44.3944 294.444 44.1064ZM311.436 43.7944C310.044 41.5384 308.676 39.1144 308.052 38.1304C309.516 37.4344 310.284 35.8744 310.284 33.6664C310.284 30.7144 308.316 28.1704 304.62 28.1704H297.18C297.108 28.1704 296.988 28.1464 296.988 28.3864C296.988 34.1224 296.988 38.0344 296.988 44.2264C296.988 44.4664 296.988 44.4424 297.18 44.4424C298.62 44.4424 299.58 44.4424 301.116 44.4424C301.284 44.4424 301.308 44.4184 301.308 44.2264C301.308 42.3544 301.308 39.6904 301.308 39.6904L304.068 39.6424C304.068 39.6424 305.82 42.4024 306.636 43.9624C306.852 44.3944 306.948 44.4424 307.14 44.4424H311.388C311.652 44.4424 311.724 44.2744 311.436 43.7944ZM305.724 33.9784C305.724 35.3704 305.004 36.3304 303.708 36.3784L301.308 36.4504V31.7464H303.684C305.076 31.7464 305.724 32.7064 305.724 33.9784Z" fill="black"/>
<path d="M124.475 0.804061C124.524 2.64652 125.854 7.46527 126.642 8.78806C127.135 9.59119 128.318 10.725 129.303 11.3392L131.077 12.5202L155.909 12.662C179.953 12.7564 180.84 12.7564 182.81 11.8116C185.323 10.6305 186.998 8.36288 187.836 4.81968C189.068 -0.188034 189.215 0.000935555 183.944 0.000935555H179.361L178.869 1.98513L178.425 4.01656H156.5H134.575L134.132 1.98513L133.639 0.000935555H129.057C125.017 0.000935555 124.475 0.0954218 124.475 0.804061Z" fill="black"/>
<path d="M116.197 26.5513C116.345 31.181 116.542 32.2204 117.675 34.299C119.942 38.4091 124.376 41.5272 129.057 42.1886C130.042 42.3303 130.88 42.3303 130.88 42.1413C130.83 41.9523 130.436 39.9682 129.943 37.7478C129.155 34.1101 128.859 33.4487 127.283 32.1259C126.248 31.2755 125.46 30.4251 125.46 30.1889C125.46 29.9527 126.987 29.7637 128.859 29.7637H132.308L132.801 32.2204C133.097 33.5904 135.117 43.1334 137.235 53.3851L141.078 72.0459H156.549H171.971L176.011 52.6764C178.179 41.9996 180.15 32.5038 180.347 31.5117L180.692 29.7637H184.091C186.013 29.7637 187.54 29.9527 187.54 30.1889C187.54 30.4251 186.752 31.2755 185.717 32.1259C184.141 33.4487 183.845 34.1101 183.057 37.7478C182.564 39.9682 182.17 41.9523 182.12 42.1413C182.12 42.3303 182.958 42.3303 183.993 42.1886C188.624 41.5272 193.058 38.4091 195.325 34.299C196.458 32.2204 196.655 31.181 196.803 26.5513L197 21.2601L185.027 21.3546L173.055 21.4963L169.704 37.5588C167.881 46.3932 165.911 55.8889 165.319 58.6762L164.235 63.7784H156.5H148.765L144.38 42.6137L139.995 21.4963L127.973 21.3546L116 21.2601L116.197 26.5513Z" fill="black"/>
</svg>
